<?xml version="1.0" standalone="no"?>
<!DOCTYPE svg PUBLIC "-//W3C//DTD SVG 20010904//EN"
 "http://www.w3.org/TR/2001/REC-SVG-20010904/DTD/svg10.dtd">
<svg version="1.0" xmlns="http://www.w3.org/2000/svg"
 width="200.000000pt" height="200.000000pt" viewBox="0 0 200.000000 200.000000"
 preserveAspectRatio="xMidYMid meet">
<metadata>
Created by potrace 1.14, written by Peter Selinger 2001-2017
</metadata>
<g transform="translate(0.000000,200.000000) scale(0.100000,-0.100000)"
fill="#000000" stroke="none">
<path d="M1027 1844 c-1 -2 -23 -6 -47 -9 -52 -7 -85 -13 -85 -15 0 -1 -11 -3
-25 -6 -14 -2 -32 -7 -40 -11 -8 -3 -20 -7 -25 -8 -30 -7 -144 -69 -139 -76 3
-5 -2 -6 -10 -3 -9 3 -16 1 -16 -5 0 -6 -6 -11 -12 -11 -19 0 -79 -56 -70 -64
4 -4 3 -6 -3 -5 -14 5 -65 -31 -65 -45 0 -7 -11 -19 -25 -26 -14 -7 -25 -19
-25 -26 0 -7 -3 -14 -8 -16 -18 -8 -97 -143 -94 -160 1 -5 -2 -8 -7 -8 -14 0
-53 -119 -46 -143 4 -16 4 -18 -3 -8 -7 10 -13 -7 -22 -57 -44 -265 32 -529
208 -722 168 -184 382 -280 630 -281 170 -1 302 37 469 137 38 22 40 30 14 63
l-18 24 -29 -20 c-195 -138 -493 -168 -723 -74 -145 60 -279 170 -363 298 -36
55 -95 182 -104 227 -19 86 -24 133 -27 209 -1 48 0 87 3 87 3 0 7 13 8 29 7
90 76 249 151 346 25 33 45 64 43 68 -1 5 2 6 7 3 5 -4 18 4 28 17 28 35 135
111 206 146 73 36 197 69 277 75 30 2 58 4 63 5 4 1 7 16 7 34 0 32 -1 33 -40
33 -22 0 -42 -1 -43 -2z m-740 -729 c0 -8 -4 -12 -9 -9 -5 3 -6 10 -3 15 9 13
12 11 12 -6z"/>
<path d="M1090 1572 l0 -38 45 -3 c241 -12 443 -194 501 -452 7 -31 7 -160 0
-167 -3 -3 0 -12 7 -20 7 -10 8 -13 1 -9 -16 9 -25 -28 -10 -43 8 -9 8 -11 -2
-8 -15 3 -44 -70 -35 -86 3 -6 3 -8 -1 -4 -5 4 -24 -17 -43 -45 -19 -29 -47
-64 -61 -80 -31 -31 -123 -101 -135 -102 -4 0 -12 -7 -17 -15 -5 -8 -10 -12
-10 -8 0 4 -12 3 -27 -3 -183 -72 -423 -34 -550 88 -13 13 -28 23 -33 23 -6 0
-10 5 -10 10 0 14 -43 56 -53 52 -5 -1 -6 1 -4 5 7 12 -29 73 -38 65 -5 -4 -5
-1 -1 6 4 7 1 23 -7 35 -12 19 -22 48 -27 79 -1 4 -7 29 -14 55 -6 27 -11 58
-10 71 1 19 -4 22 -33 22 l-34 0 2 -52 c1 -29 5 -57 8 -63 6 -11 7 -17 9 -53
1 -15 6 -21 14 -16 6 4 8 3 4 -4 -7 -12 22 -93 37 -103 5 -3 8 -10 6 -14 -2
-8 18 -40 44 -67 9 -10 17 -21 17 -25 0 -4 26 -31 57 -60 60 -55 180 -121 263
-143 62 -17 201 -22 252 -10 24 6 54 13 67 16 85 18 264 128 243 149 -4 4 -2
5 5 3 33 -9 161 194 177 282 3 19 8 46 11 60 7 29 8 178 2 200 -2 8 -7 31 -11
50 -24 103 -110 236 -201 312 -95 81 -213 130 -342 142 l-63 7 0 -39z m-544
-657 c-1 -8 -5 -17 -8 -21 -5 -4 -4 16 1 34 3 9 9 -1 7 -13z m0 -71 c1 -9 0
-13 -4 -10 -3 4 -7 14 -8 22 -1 9 0 13 4 10 3 -4 7 -14 8 -22z"/>
<path d="M1014 1315 c-103 -28 -207 -128 -231 -220 -40 -158 8 -297 134 -384
76 -52 203 -68 292 -36 137 48 234 189 224 325 -4 61 -23 140 -34 140 -5 0 -9
7 -9 16 0 9 -26 42 -58 73 -93 89 -201 118 -318 86z m197 -84 c24 -12 58 -36
75 -52 17 -16 34 -26 39 -22 4 5 5 2 1 -4 -4 -7 0 -25 8 -40 53 -96 33 -224
-45 -301 -170 -166 -444 -53 -452 186 -1 36 3 62 11 71 8 8 11 22 9 33 -3 10
-1 16 4 12 5 -3 9 1 9 8 0 7 20 32 44 55 24 23 42 45 40 48 -2 3 -1 3 2 0 4
-2 16 1 27 6 11 6 34 13 51 16 17 3 32 6 34 8 11 11 106 -5 143 -24z"/>
<path d="M1119 1073 c-6 -16 -12 -35 -14 -43 -2 -8 -4 -16 -5 -17 -2 -2 -3 -6
-5 -10 -1 -5 -5 -17 -10 -28 -34 -84 -34 -85 -21 -85 7 0 28 46 48 105 20 58
32 105 27 105 -5 0 -14 -12 -20 -27z"/>
<path d="M1000 1020 c-25 -10 -45 -23 -45 -30 0 -7 21 -21 48 -31 27 -11 47
-14 47 -8 0 5 -14 15 -30 21 -28 9 -37 33 -14 33 14 1 49 23 44 28 -3 3 -25
-3 -50 -13z"/>
<path d="M1183 1013 c34 -14 50 -33 28 -33 -22 0 -62 -21 -56 -29 3 -6 27 -1
55 11 27 11 47 24 45 29 -9 14 -67 39 -89 38 -15 -1 -11 -5 17 -16z"/>
</g>
</svg>
